# File created by Blade
# Date/Time:  Wed Jan 28 15:39:58 2015
#---------------------------------------------------------
:version 1.10
:name HOM
:units
  mass 1.0
  length 1.000000
  angle deg
:documentation
     Acclaim Skeleton File
:root
   axis xyz
   order TX TY TZ RX RY RZ
   position 0.000000 0.000000 0.000000
   orientation 0 0 0
:bonedata
   begin
      id 1
      name Spine_dum
      direction 0.000000 1.000000 0.000000
      length 6.864287
      axis 0.0 0.0 0.0 xyz
   end
   begin
      id 2
      name LeftUpLeg_dum
      direction 1.000000 0.000000 0.000000
      length 4.117376
      axis 0.0 0.0 0.0 xyz
   end
   begin
      id 3
      name RightUpLeg_dum
      direction -1.000000 0.000000 0.000000
      length 4.117376
      axis 0.0 0.0 0.0 xyz
   end
   begin
      id 4
      name Spine
      direction 0.000000 1.000000 0.000000
      length 0.000000
      axis 0.0 0.0 0.0 xyz
      dof rx ry rz
   end
   begin
      id 5
      name Spine_dum1
      direction 0.000000 1.000000 0.000000
      length 15.393827
      axis 0.0 0.0 0.0 xyz
   end
   begin
      id 6
      name Spine_dum2
      direction 0.000000 1.000000 0.000000
      length 9.314826
      axis 0.0 0.0 0.0 xyz
   end
   begin
      id 7
      name Spine_dum3
      direction 0.000000 1.000000 0.000000
      length 9.314826
      axis 0.0 0.0 0.0 xyz
   end
   begin
      id 8
      name Head
      direction 0.000000 1.000000 0.000000
      length 4.527550
      axis 0.0 0.0 0.0 xyz
      dof rx ry rz
   end
   begin
      id 9
      name LeftShoulder
      direction 1.000000 0.000000 0.000000
      length 8.275398
      axis 0.0 0.0 -90.0 xyz
      dof rx ry rz
   end
   begin
      id 10
      name LeftArm
      direction 1.000000 0.000000 0.000000
      length 12.002200
      axis 0.0 0.0 -90.0 xyz
      dof rx ry rz
   end
   begin
      id 11
      name LeftForeArm
      direction 1.000000 0.000000 0.000000
      length 10.144633
      axis 0.0 0.0 -90.0 xyz
      dof ry rz rx
   end
   begin
      id 12
      name LeftHand
      direction 0.000000 0.000000 0.000000
      length 0.000000
      axis 0.0 0.0 -90.0 xyz
      dof rx ry rz
   end
   begin
      id 13
      name LeftHand_dum1
      direction 0.000000 0.000000 0.000000
      length 0.000000
      axis 0.0 0.0 -90.0 xyz
   end
   begin
      id 14
      name LeftHand_dum2
      direction 1.000000 0.000000 0.000000
      length 3.937000
      axis 0.0 0.0 -90.0 xyz
   end
   begin
      id 15
      name LeftHandThumb1
      direction 0.000000 0.000000 1.000000
      length 3.937000
      axis 0.0 0.0 -90.0 xyz
      dof rx rz ry
   end
   begin
      id 16
      name RightShoulder
      direction -1.000000 0.000000 0.000000
      length 8.275398
      axis 0.0 0.0 90.0 xyz
      dof rx ry rz
   end
   begin
      id 17
      name RightArm
      direction -1.000000 0.000000 0.000000
      length 12.002200
      axis 0.0 0.0 90.0 xyz
      dof rx ry rz
   end
   begin
      id 18
      name RightForeArm
      direction -1.000000 0.000000 0.000000
      length 10.144633
      axis 0.0 0.0 90.0 xyz
      dof ry rz rx
   end
   begin
      id 19
      name RightHand
      direction 0.000000 0.000000 0.000000
      length 0.000000
      axis 0.0 0.0 90.0 xyz
      dof rx ry rz
   end
   begin
      id 20
      name RightHand_dum1
      direction 0.000000 0.000000 0.000000
      length 0.000000
      axis 0.0 0.0 90.0 xyz
   end
   begin
      id 21
      name RightHand_dum2
      direction -1.000000 0.000000 0.000000
      length 3.937000
      axis 0.0 0.0 90.0 xyz
   end
   begin
      id 22
      name RightHandThumb1
      direction 0.000000 0.000000 1.000000
      length 3.937000
      axis 0.0 0.0 90.0 xyz
      dof rx rz ry
   end
   begin
      id 23
      name LeftUpLeg
      direction 0.000000 -1.000000 0.000000
      length 19.394322
      axis 0.0 0.0 0.0 xyz
      dof rx ry rz
   end
   begin
      id 24
      name LeftLeg
      direction 0.000000 -1.000000 0.000000
      length 17.609563
      axis 0.0 0.0 0.0 xyz
      dof rx ry rz
   end
   begin
      id 25
      name LeftFoot
      direction 0.000000 -0.258819 0.965926
      length 6.085393
      axis 15.0 0.0 0.0 xyz
      dof rx ry rz
   end
   begin
      id 26
      name LeftToeBase
      direction 0.000000 0.000000 1.000000
      length 2.952750
      axis 0.0 0.0 0.0 xyz
      dof rx ry rz
   end
   begin
      id 27
      name RightUpLeg
      direction 0.000000 -1.000000 0.000000
      length 19.394322
      axis 0.0 0.0 0.0 xyz
      dof rx ry rz
   end
   begin
      id 28
      name RightLeg
      direction 0.000000 -1.000000 0.000000
      length 17.609563
      axis 0.0 0.0 0.0 xyz
      dof rx ry rz
   end
   begin
      id 29
      name RightFoot
      direction 0.000000 -0.258819 0.965926
      length 6.085393
      axis 15.0 0.0 0.0 xyz
      dof rx ry rz
   end
   begin
      id 30
      name RightToeBase
      direction 0.000000 0.000000 1.000000
      length 2.952750
      axis 0.0 0.0 0.0 xyz
      dof rx ry rz
   end
:hierarchy
   begin
      root Spine_dum LeftUpLeg_dum RightUpLeg_dum
      Spine_dum Spine
      LeftUpLeg_dum LeftUpLeg
      RightUpLeg_dum RightUpLeg
      Spine Spine_dum1 Spine_dum2 Spine_dum3
      Spine_dum1 Head
      Spine_dum2 LeftShoulder
      Spine_dum3 RightShoulder
      LeftShoulder LeftArm
      LeftArm LeftForeArm
      LeftForeArm LeftHand
      LeftHand LeftHand_dum1 LeftHand_dum2
      LeftHand_dum1 LeftHandThumb1
      RightShoulder RightArm
      RightArm RightForeArm
      RightForeArm RightHand
      RightHand RightHand_dum1 RightHand_dum2
      RightHand_dum1 RightHandThumb1
      LeftUpLeg LeftLeg
      LeftLeg LeftFoot
      LeftFoot LeftToeBase
      RightUpLeg RightLeg
      RightLeg RightFoot
      RightFoot RightToeBase
   end

# File created by Blade
# Date/Time:  Wed Jan 28 15:40:07 2015
# Frame Rate: 120.000 fps
#------------------------------------------------------
:FULLY-SPECIFIED
:DEGREES
1
root -0.216378 39.558248 -7.962670 1.985243 1.296779 2.446901
Spine 3.709977 -5.589989 -5.086709
Head 1.439286 -1.276250 3.244061
LeftShoulder -16.376767 21.171107 23.724318
LeftArm 20.849368 -43.250494 -56.274656
LeftForeArm -25.165249 -0.000000 9.422855
LeftHand 10.480189 -0.000000 -7.899024
LeftHandThumb1 -26.253704 0.000000 33.147579
RightShoulder -11.543637 4.387671 -24.634044
RightArm -0.547310 43.616483 46.427017
RightForeArm 5.087842 -0.000000 14.517468
RightHand -1.061167 -0.000000 -13.755122
RightHandThumb1 -24.326973 -0.000000 -32.862282
LeftUpLeg 1.316531 6.595691 2.811635
LeftLeg 2.607532 -0.000000 -0.000000
LeftFoot -8.222159 4.955568 -17.588592
LeftToeBase 11.538163 -0.000000 -0.000000
RightUpLeg 1.166835 -4.084384 -1.262668
RightLeg 2.211482 -0.000000 -0.000000
RightFoot -16.690913 -20.949310 19.687698
RightToeBase 11.779389 -0.000000 -0.000000
2
root -0.214523 39.558572 -7.964293 1.988657 1.282416 2.443846
Spine 3.708422 -5.592726 -5.099135
Head 1.437361 -1.288653 3.255566
LeftShoulder -16.379152 21.178659 23.734673
LeftArm 20.858612 -43.226052 -56.264455
LeftForeArm -25.218885 -0.000000 9.430783
LeftHand 10.450254 -0.000000 -7.870081
LeftHandThumb1 -26.253704 0.000000 33.147579
RightShoulder -11.536993 4.378607 -24.623818
RightArm -0.531352 43.629611 46.429993
RightForeArm 5.087734 -0.000000 14.488402
RightHand -1.070483 -0.000000 -13.761987
RightHandThumb1 -24.326973 -0.000000 -32.862282
LeftUpLeg 1.312597 6.582888 2.810084
LeftLeg 2.608936 -0.000000 -0.000000
LeftFoot -8.231051 4.977378 -17.608740
LeftToeBase 11.534209 -0.000000 -0.000000
RightUpLeg 1.160592 -4.077143 -1.255793
RightLeg 2.189405 -0.000000 -0.000000
RightFoot -16.695494 -20.989905 19.703980
RightToeBase 11.842156 -0.000000 -0.000000
3
root -0.212302 39.558812 -7.966391 1.986872 1.265819 2.442516
Spine 3.717427 -5.592102 -5.110860
Head 1.425768 -1.299208 3.256407
LeftShoulder -16.366025 21.209701 23.743876
LeftArm 20.877518 -43.248041 -56.277386
LeftForeArm -25.274900 -0.000000 9.444535
LeftHand 10.445718 -0.000000 -7.893943
LeftHandThumb1 -26.253704 0.000000 33.147579
RightShoulder -11.538858 4.370017 -24.624277
RightArm -0.511155 43.626247 46.444393
RightForeArm 5.061655 -0.000000 14.462952
RightHand -1.091395 -0.000000 -13.649946
RightHandThumb1 -24.326973 -0.000000 -32.862282
LeftUpLeg 1.310143 6.570844 2.805727
LeftLeg 2.616336 -0.000000 -0.000000
LeftFoot -8.241571 5.002878 -17.603322
LeftToeBase 11.515078 -0.000000 -0.000000
RightUpLeg 1.152045 -4.074126 -1.259187
RightLeg 2.198818 -0.000000 -0.000000
RightFoot -16.680414 -20.982832 19.693002
RightToeBase 11.803680 -0.000000 -0.000000
4
root -0.210149 39.559118 -7.967418 1.986506 1.246418 2.442707
Spine 3.721204 -5.593182 -5.127356
Head 1.423311 -1.281076 3.264438
LeftShoulder -16.371933 21.228017 23.751125
LeftArm 20.901581 -43.259242 -56.282489
LeftForeArm -25.266234 -0.000000 9.449922
LeftHand 10.451290 -0.000000 -7.927965
LeftHandThumb1 -26.253704 0.000000 33.147579
RightShoulder -11.544157 4.354178 -24.618279
RightArm -0.475633 43.627677 46.467179
RightForeArm 5.081019 -0.000000 14.447274
RightHand -1.107365 -0.000000 -13.652430
RightHandThumb1 -24.326973 -0.000000 -32.862282
LeftUpLeg 1.311329 6.572915 2.800838
LeftLeg 2.617331 -0.000000 -0.000000
LeftFoot -8.246817 5.021308 -17.597829
LeftToeBase 11.539478 -0.000000 -0.000000
RightUpLeg 1.142173 -4.071989 -1.263644
RightLeg 2.212744 -0.000000 -0.000000
RightFoot -16.692555 -20.956281 19.714288
RightToeBase 11.849836 -0.000000 -0.000000
5
root -0.207130 39.559382 -7.968907 1.986145 1.234590 2.440651
Spine 3.728509 -5.596198 -5.132071
Head 1.406041 -1.300634 3.236779
LeftShoulder -16.366825 21.230466 23.753946
LeftArm 20.896786 -43.248849 -56.261991
LeftForeArm -25.283532 -0.000000 9.463129
LeftHand 10.427306 -0.000000 -7.942067
LeftHandThumb1 -26.253704 0.000000 33.147579
RightShoulder -11.543163 4.352268 -24.628231
RightArm -0.480796 43.639912 46.472168
RightForeArm 5.101092 -0.000000 14.439626
RightHand -1.075817 -0.000000 -13.664999
RightHandThumb1 -24.326973 -0.000000 -32.862282
LeftUpLeg 1.306698 6.577998 2.797016
LeftLeg 2.627758 -0.000000 -0.000000
LeftFoot -8.261039 5.030266 -17.603286
LeftToeBase 11.558904 -0.000000 -0.000000
RightUpLeg 1.136035 -4.062462 -1.266990
RightLeg 2.220573 -0.000000 -0.000000
RightFoot -16.683376 -20.955733 19.696968
RightToeBase 11.839560 -0.000000 -0.000000
6
root -0.205584 39.559299 -7.970106 1.984145 1.220318 2.449401
Spine 3.737580 -5.589125 -5.179136
Head 1.408275 -1.277264 3.379336
LeftShoulder -16.360469 21.228849 23.807577
LeftArm 20.898408 -43.218363 -56.263284
LeftForeArm -25.290428 0.000000 9.472805
LeftHand 10.427917 -0.000000 -7.874690
LeftHandThumb1 -26.253704 0.000000 33.147579
RightShoulder -11.542655 4.341159 -24.598502
RightArm -0.466606 43.647872 46.468396
RightForeArm 5.127161 -0.000000 14.403801
RightHand -1.055766 -0.000000 -13.669956
RightHandThumb1 -24.326973 -0.000000 -32.862282
LeftUpLeg 1.308144 6.572824 2.786010
LeftLeg 2.629486 -0.000000 -0.000000
LeftFoot -8.249620 5.034781 -17.602747
LeftToeBase 11.537025 -0.000000 -0.000000
RightUpLeg 1.132721 -4.077289 -1.279064
RightLeg 2.222459 -0.000000 -0.000000
RightFoot -16.672504 -20.930826 19.682847
RightToeBase 11.807245 -0.000000 -0.000000
7
root -0.202119 39.559567 -7.971698 1.987838 1.200201 2.443734
Spine 3.741629 -5.592693 -5.169172
Head 1.386038 -1.309775 3.274514
LeftShoulder -16.358776 21.208815 23.782357
LeftArm 20.854936 -43.172104 -56.174681
LeftForeArm -25.335717 -0.000000 9.464683
LeftHand 10.431344 -0.000000 -7.833140
LeftHandThumb1 -26.253704 0.000000 33.147579
RightShoulder -11.547668 4.319986 -24.620530
RightArm -0.434559 43.688379 46.515596
RightForeArm 5.114981 -0.000000 14.422283
RightHand -1.082531 -0.000000 -13.690954
RightHandThumb1 -24.326973 -0.000000 -32.862282
LeftUpLeg 1.302081 6.562061 2.783055
LeftLeg 2.649160 -0.000000 -0.000000
LeftFoot -8.252013 5.040386 -17.512639
LeftToeBase 11.384218 -0.000000 -0.000000
RightUpLeg 1.116278 -4.066593 -1.279511
RightLeg 2.238926 -0.000000 -0.000000
RightFoot -16.673348 -20.914731 19.689793
RightToeBase 11.819580 -0.000000 -0.000000
8
root -0.200940 39.559576 -7.972753 1.991425 1.188265 2.440202
Spine 3.741015 -5.589298 -5.182187
Head 1.378235 -1.310952 3.281647
LeftShoulder -16.356100 21.217287 23.789595
LeftArm 20.882558 -43.170126 -56.164235
LeftForeArm -25.343359 -0.000000 9.453246
LeftHand 10.438547 0.000000 -7.805135
LeftHandThumb1 -26.253704 0.000000 33.147579
RightShoulder -11.562562 4.286869 -24.615734
RightArm -0.394672 43.658614 46.556956
RightForeArm 5.303582 -0.000000 14.444843
RightHand -1.088553 -0.000000 -13.810188
RightHandThumb1 -24.326973 -0.000000 -32.862282
LeftUpLeg 1.302429 6.538296 2.782463
LeftLeg 2.631059 -0.000000 -0.000000
LeftFoot -8.295020 5.096155 -17.642283
LeftToeBase 11.620239 -0.000000 -0.000000
RightUpLeg 1.105591 -4.063427 -1.277378
RightLeg 2.244257 -0.000000 -0.000000
RightFoot -16.675564 -20.931359 19.709650
RightToeBase 11.732292 -0.000000 -0.000000
9
root -0.197918 39.559771 -7.973649 1.991334 1.173130 2.437108
Spine 3.747403 -5.597469 -5.185884
Head 1.369837 -1.334473 3.221639
LeftShoulder -16.361086 21.207090 23.777354
LeftArm 20.881619 -43.200097 -56.140077
LeftForeArm -25.287549 -0.000000 9.460076
LeftHand 10.459093 -0.000000 -7.826488
LeftHandThumb1 -26.253704 0.000000 33.147579
RightShoulder -11.560241 4.251433 -24.623475
RightArm -0.378050 43.693345 46.584703
RightForeArm 5.225871 -0.000000 14.458946
RightHand -1.078789 -0.000000 -13.736970
RightHandThumb1 -24.326973 -0.000000 -32.862282
LeftUpLeg 1.301789 6.535977 2.779849
LeftLeg 2.632390 -0.000000 -0.000000
LeftFoot -8.294663 5.110903 -17.629836
LeftToeBase 11.525654 -0.000000 -0.000000
RightUpLeg 1.102761 -4.029628 -1.278765
RightLeg 2.245114 -0.000000 -0.000000
RightFoot -16.665708 -20.930809 19.701544
RightToeBase 11.793213 -0.000000 -0.000000
10
root -0.195522 39.559899 -7.974915 1.991871 1.156454 2.437726
Spine 3.753525 -5.590049 -5.206781
Head 1.369917 -1.307596 3.302431
LeftShoulder -16.354900 21.204650 23.782643
LeftArm 20.854839 -43.160789 -56.074614
LeftForeArm -25.269889 -0.000000 9.477298
LeftHand 10.477719 -0.000000 -7.864536
LeftHandThumb1 -26.253704 0.000000 33.147579
RightShoulder -11.568054 4.240238 -24.610863
RightArm -0.386733 43.694309 46.576929
RightForeArm 5.226835 -0.000000 14.477472
RightHand -1.057674 -0.000000 -13.694007
RightHandThumb1 -24.326973 -0.000000 -32.862282
LeftUpLeg 1.302811 6.527589 2.774056
LeftLeg 2.631704 -0.000000 -0.000000
LeftFoot -8.304229 5.140893 -17.619749
LeftToeBase 11.523388 -0.000000 -0.000000
RightUpLeg 1.092996 -4.030194 -1.282563
RightLeg 2.256336 -0.000000 -0.000000
RightFoot -16.647047 -20.947699 19.661948
RightToeBase 11.667980 -0.000000 -0.000000
